<svg xmlns="http://www.w3.org/2000/svg" viewBox="0 0 128 128">
  <defs>
    <radialGradient id="g" cx="50%" cy="46%" r="54%">
      <stop offset="0" stop-color="#f6d98a" stop-opacity=".92"/>
      <stop offset=".42" stop-color="#69b9d4" stop-opacity=".62"/>
      <stop offset="1" stop-color="#070708" stop-opacity=".0"/>
    </radialGradient>
    <linearGradient id="b" x1="18" y1="18" x2="108" y2="112">
      <stop offset="0" stop-color="#8bd3ff"/>
      <stop offset=".52" stop-color="#f0ce78"/>
      <stop offset="1" stop-color="#7f5fff"/>
    </linearGradient>
  </defs>
  <rect width="128" height="128" fill="none"/>
  <circle cx="64" cy="64" r="58" fill="url(#g)"/>
  <g fill="none" stroke-linecap="round" stroke-linejoin="round">
    <ellipse cx="64" cy="66" rx="47" ry="21" stroke="#060707" stroke-width="12" opacity=".88"/>
    <ellipse cx="64" cy="66" rx="47" ry="21" stroke="url(#b)" stroke-width="5"/>
    <ellipse cx="64" cy="66" rx="27" ry="48" stroke="#060707" stroke-width="10" opacity=".74" transform="rotate(28 64 66)"/>
    <ellipse cx="64" cy="66" rx="27" ry="48" stroke="#8bd3ff" stroke-width="3.8" opacity=".82" transform="rotate(28 64 66)"/>
    <ellipse cx="64" cy="66" rx="27" ry="48" stroke="#060707" stroke-width="10" opacity=".74" transform="rotate(-28 64 66)"/>
    <ellipse cx="64" cy="66" rx="27" ry="48" stroke="#f0ce78" stroke-width="3.8" opacity=".82" transform="rotate(-28 64 66)"/>
  </g>
  <g opacity=".95">
    <path d="M61 28c9 7 14 20 14 34s-5 27-14 37c-9-10-14-23-14-37s5-27 14-34Z" fill="#0b0d11" stroke="#d9c6a3" stroke-width="3"/>
    <path d="M38 40c8 7 12 18 12 30s-4 23-12 31c-8-8-12-19-12-31s4-23 12-30Z" fill="#0b0d11" stroke="#5c8b9a" stroke-width="3" opacity=".72"/>
    <path d="M90 40c8 7 12 18 12 30s-4 23-12 31c-8-8-12-19-12-31s4-23 12-30Z" fill="#0b0d11" stroke="#b28f46" stroke-width="3" opacity=".72"/>
  </g>
  <g stroke="#f0ce78" stroke-width="3" stroke-linecap="round" opacity=".88">
    <path d="M22 65h12M94 65h12M64 18v11M64 99v11"/>
  </g>
</svg>
