<svg xmlns="http://www.w3.org/2000/svg" viewBox="0 0 128 128">
  <defs>
    <radialGradient id="r" cx="50%" cy="50%" r="55%">
      <stop offset="0" stop-color="#f8e8a8" stop-opacity=".92"/>
      <stop offset=".38" stop-color="#8bd3ff" stop-opacity=".54"/>
      <stop offset="1" stop-color="#050506" stop-opacity=".0"/>
    </radialGradient>
    <linearGradient id="l" x1="18" y1="24" x2="106" y2="106">
      <stop offset="0" stop-color="#e9f7ff"/>
      <stop offset=".5" stop-color="#8bd3ff"/>
      <stop offset="1" stop-color="#f0ce78"/>
    </linearGradient>
  </defs>
  <rect width="128" height="128" fill="none"/>
  <circle cx="64" cy="64" r="58" fill="url(#r)"/>
  <circle cx="64" cy="64" r="47" fill="#08090c" stroke="#050506" stroke-width="12" opacity=".92"/>
  <circle cx="64" cy="64" r="47" fill="none" stroke="url(#l)" stroke-width="5"/>
  <circle cx="64" cy="64" r="32" fill="none" stroke="#5c8b9a" stroke-width="3" stroke-dasharray="4 7" opacity=".82"/>
  <g stroke-linecap="round" stroke-linejoin="round">
    <path d="M64 30v34l23-17" fill="none" stroke="#050506" stroke-width="13"/>
    <path d="M64 30v34l23-17" fill="none" stroke="#f0ce78" stroke-width="5"/>
    <path d="M42 89l44-50" fill="none" stroke="#050506" stroke-width="10" opacity=".9"/>
    <path d="M42 89l44-50" fill="none" stroke="#8bd3ff" stroke-width="3.8"/>
  </g>
  <g fill="#f0ce78" opacity=".92">
    <circle cx="64" cy="17" r="4"/>
    <circle cx="64" cy="111" r="4"/>
    <circle cx="17" cy="64" r="4"/>
    <circle cx="111" cy="64" r="4"/>
  </g>
  <g stroke="#8bd3ff" stroke-width="3" stroke-linecap="round" opacity=".78">
    <path d="M28 28l10 10M100 28L90 38M28 100l10-10M100 100L90 90"/>
  </g>
</svg>
